<?xml version="1.0" standalone="no"?>
<!DOCTYPE svg PUBLIC "-//W3C//DTD SVG 20010904//EN"
 "http://www.w3.org/TR/2001/REC-SVG-20010904/DTD/svg10.dtd">
<svg version="1.0" xmlns="http://www.w3.org/2000/svg"
 width="154.000000pt" height="154.000000pt" viewBox="0 0 154.000000 154.000000"
 preserveAspectRatio="xMidYMid meet">

<g transform="translate(0.000000,154.000000) scale(0.100000,-0.100000)"
fill="#000000" stroke="none">
<path d="M648 1530 c-303 -55 -537 -265 -620 -557 -18 -62 -22 -104 -22 -203
0 -143 22 -241 78 -346 l33 -62 -44 -158 c-24 -86 -42 -163 -39 -171 8 -21 38
-16 192 32 l145 45 59 -30 c107 -54 200 -74 340 -74 99 0 141 4 203 22 263 75
464 276 539 539 32 111 32 295 0 406 -74 261 -277 465 -534 537 -82 23 -255
34 -330 20z m337 -84 c112 -36 198 -89 285 -176 87 -87 139 -172 177 -285 24
-71 27 -95 27 -215 0 -120 -3 -144 -27 -215 -38 -113 -90 -198 -177 -285 -87
-87 -172 -139 -285 -177 -69 -23 -97 -27 -210 -27 -145 -1 -227 17 -338 77
l-58 30 -136 -41 c-75 -23 -137 -41 -138 -40 -2 2 15 64 37 138 l39 135 -35
65 c-63 118 -81 198 -80 345 0 113 4 141 27 210 82 246 276 422 532 481 93 21
261 12 360 -20z"/>
<path d="M408 1243 c-24 -6 -93 -112 -113 -174 -28 -82 -18 -177 27 -272 93
-194 234 -345 404 -430 124 -62 305 -79 402 -37 80 35 139 114 157 211 7 36 6
37 -52 72 -32 19 -85 51 -117 71 -71 43 -89 44 -119 9 -59 -71 -101 -113 -112
-113 -23 0 -160 97 -222 157 -33 32 -70 77 -81 99 l-21 41 24 23 c14 13 32 43
41 66 l17 44 -42 87 c-24 49 -54 103 -67 121 -22 28 -31 32 -67 31 -23 -1 -50
-3 -59 -6z m127 -144 c53 -102 52 -107 -5 -173 -30 -34 -31 -37 -19 -73 17
-53 57 -109 122 -170 61 -58 197 -150 235 -160 37 -9 85 20 133 81 49 62 37
63 151 -11 67 -43 70 -47 64 -76 -11 -54 -54 -107 -104 -130 -64 -29 -181 -29
-277 1 -180 55 -350 212 -452 419 -35 70 -38 84 -38 157 0 64 5 91 23 128 36
73 60 98 92 98 25 0 33 -9 75 -91z"/>
</g>
</svg>
