<?xml version="1.0" encoding="UTF-8"?>
<!DOCTYPE svg PUBLIC "-//W3C//DTD SVG 1.1//EN" "http://www.w3.org/Graphics/SVG/1.1/DTD/svg11.dtd">
<svg xmlns="http://www.w3.org/2000/svg" version="1.1" width="780px" height="432px" style="shape-rendering:geometricPrecision; text-rendering:geometricPrecision; image-rendering:optimizeQuality; fill-rule:evenodd; clip-rule:evenodd" xmlns:xlink="http://www.w3.org/1999/xlink">
<g><path style="opacity:1" fill="#061936" d="M -0.5,-0.5 C 259.5,-0.5 519.5,-0.5 779.5,-0.5C 779.5,143.5 779.5,287.5 779.5,431.5C 519.5,431.5 259.5,431.5 -0.5,431.5C -0.5,287.5 -0.5,143.5 -0.5,-0.5 Z"/></g>
<g><path style="opacity:1" fill="#f2f5f6" d="M 324.5,33.5 C 324.5,43.1667 324.5,52.8333 324.5,62.5C 323.5,62.5 322.5,62.5 321.5,62.5C 321.825,55.3134 321.491,48.3134 320.5,41.5C 320.5,39.1667 320.5,36.8333 320.5,34.5C 319.167,34.5 317.833,34.5 316.5,34.5C 316.5,36.8333 316.5,39.1667 316.5,41.5C 315.509,48.3134 315.175,55.3134 315.5,62.5C 314.5,62.5 313.5,62.5 312.5,62.5C 312.5,52.5 312.5,42.5 312.5,32.5C 315.246,29.813 318.58,28.9796 322.5,30C 323.305,31.1127 323.972,32.2794 324.5,33.5 Z"/></g>
<g><path style="opacity:1" fill="#8a99af" d="M 426.5,32.5 C 423.5,32.5 420.5,32.5 417.5,32.5C 417.5,30.1667 417.5,27.8333 417.5,25.5C 415.143,25.6633 412.81,25.4966 410.5,25C 413.063,23.9207 415.729,23.4207 418.5,23.5C 418.674,25.861 419.007,28.1944 419.5,30.5C 422.228,30.1706 424.562,30.8372 426.5,32.5 Z"/></g>
<g><path style="opacity:1" fill="#1b273f" d="M 417.5,32.5 C 420.5,32.5 423.5,32.5 426.5,32.5C 427.945,34.0627 429.611,35.396 431.5,36.5C 431.5,40.5 431.5,44.5 431.5,48.5C 431.5,49.8333 430.833,50.5 429.5,50.5C 427.174,51.1511 424.841,51.8178 422.5,52.5C 420.068,52.1136 417.734,51.4469 415.5,50.5C 413.088,50.3059 412.088,48.9726 412.5,46.5C 412.5,43.5 412.5,40.5 412.5,37.5C 414.5,36.1667 416.167,34.5 417.5,32.5 Z"/></g>
<g><path style="opacity:1" fill="#8f9db2" d="M 426.5,32.5 C 429.367,32.3692 431.033,33.7026 431.5,36.5C 429.611,35.396 427.945,34.0627 426.5,32.5 Z"/></g>
<g><path style="opacity:1" fill="#a3b0c1" d="M 443.5,36.5 C 447.683,34.8515 452.017,33.5182 456.5,32.5C 456.5,33.5 456.5,34.5 456.5,35.5C 452.176,35.9272 447.842,36.2605 443.5,36.5 Z"/></g>
<g><path style="opacity:1" fill="#909eb3" d="M 417.5,32.5 C 416.167,34.5 414.5,36.1667 412.5,37.5C 413.167,34.8333 414.833,33.1667 417.5,32.5 Z"/></g>
<g><path style="opacity:1" fill="#cad1d9" d="M 419.5,36.5 C 422.168,37.0989 424.002,38.7656 425,41.5C 425.442,39.3215 426.442,38.6548 428,39.5C 429.153,49.4141 427.153,50.0808 422,41.5C 421.814,43.9005 421.314,46.2338 420.5,48.5C 417.886,46.1086 415.886,43.2753 414.5,40C 417.064,39.5498 418.564,40.7164 419,43.5C 419.497,41.1902 419.663,38.8568 419.5,36.5 Z"/></g>
<g><path style="opacity:1" fill="#99a7bc" d="M 431.5,36.5 C 433.011,37.5025 434.678,38.1692 436.5,38.5C 435.791,39.404 434.791,39.7373 433.5,39.5C 433.932,42.8774 433.265,45.8774 431.5,48.5C 431.5,44.5 431.5,40.5 431.5,36.5 Z"/></g>
<g><path style="opacity:1" fill="#f0f2f4" d="M 309.5,36.5 C 309.831,45.1922 309.498,53.8589 308.5,62.5C 307.504,56.2015 307.17,49.8682 307.5,43.5C 307.338,41.4727 307.505,39.4727 308,37.5C 308.383,36.944 308.883,36.6107 309.5,36.5 Z"/></g>
<g><path style="opacity:1" fill="#9ba9be" d="M 401.5,32.5 C 403.326,34.4551 403.826,36.7884 403,39.5C 402.023,37.26 401.523,34.9267 401.5,32.5 Z"/></g>
<g><path style="opacity:1" fill="#78879e" d="M 443.5,36.5 C 441.485,37.9238 439.152,38.5905 436.5,38.5C 438.438,36.8372 440.772,36.1706 443.5,36.5 Z"/></g>
<g><path style="opacity:1" fill="#f1f4f7" d="M 328.5,38.5 C 329.167,38.5 329.5,38.8333 329.5,39.5C 329.5,47.1667 329.5,54.8333 329.5,62.5C 328.5,62.5 327.5,62.5 326.5,62.5C 326.334,56.1579 326.5,49.8246 327,43.5C 327.198,41.6183 327.698,39.9516 328.5,38.5 Z"/></g>
<g><path style="opacity:1" fill="#1b2942" d="M 389.5,46.5 C 391.296,52.5132 390.296,57.8465 386.5,62.5C 379.813,64.8088 374.48,63.1421 370.5,57.5C 370.802,54.9407 370.468,52.6074 369.5,50.5C 371.99,43.2547 376.99,40.7547 384.5,43C 386.881,43.2233 388.547,44.39 389.5,46.5 Z"/></g>
<g><path style="opacity:1" fill="#c7cfd7" d="M 377.5,48.5 C 378.873,48.3433 380.207,48.51 381.5,49C 382.795,51.7581 384.461,54.2581 386.5,56.5C 384.328,56.6759 381.995,56.8425 379.5,57C 378.874,57.7504 378.374,58.5838 378,59.5C 377.501,55.8484 377.335,52.1817 377.5,48.5 Z"/></g>
<g><path style="opacity:1" fill="#a0adbf" d="M 412.5,37.5 C 412.5,40.5 412.5,43.5 412.5,46.5C 405.877,48.0881 399.21,49.2547 392.5,50C 395.757,48.7745 399.09,47.6078 402.5,46.5C 403.308,44.5767 403.808,42.5767 404,40.5C 404.609,44.2832 406.776,45.9498 410.5,45.5C 410.111,42.4467 410.777,39.78 412.5,37.5 Z"/></g>
<g><path style="opacity:1" fill="#eef0f1" d="M 276.5,79.5 C 267.114,79.7799 257.78,79.4466 248.5,78.5C 247.343,69.6762 247.176,60.6762 248,51.5C 249.491,49.9963 251.324,49.1629 253.5,49C 261.479,48.0447 269.313,48.5447 277,50.5C 277.806,60.244 277.639,69.9107 276.5,79.5 Z"/></g>
<g><path style="opacity:1" fill="#9facc2" d="M 369.5,50.5 C 370.468,52.6074 370.802,54.9407 370.5,57.5C 368.801,57.6602 367.134,57.4935 365.5,57C 369.03,56.3282 370.363,54.1616 369.5,50.5 Z"/></g>
<g><path style="opacity:1" fill="#8190a6" d="M 415.5,50.5 C 417.734,51.4469 420.068,52.1136 422.5,52.5C 424.841,51.8178 427.174,51.1511 429.5,50.5C 427.34,52.2064 426.174,54.5398 426,57.5C 425.517,56.552 425.351,55.552 425.5,54.5C 422.393,54.6488 419.393,54.1488 416.5,53C 415.748,52.3292 415.414,51.4959 415.5,50.5 Z"/></g>
<g><path style="opacity:1" fill="#c4c4c4" d="M 257.5,55.5 C 268.66,53.8255 273.16,58.4922 271,69.5C 265.266,75.9626 259.599,75.9626 254,69.5C 252.608,64.0931 253.774,59.4265 257.5,55.5 Z"/></g>
<g><path style="opacity:1" fill="#6a7485" d="M 312.5,32.5 C 312.5,42.5 312.5,52.5 312.5,62.5C 313.5,62.5 314.5,62.5 315.5,62.5C 315.175,55.3134 315.509,48.3134 316.5,41.5C 316.5,49.1667 316.5,56.8333 316.5,64.5C 318.199,64.6602 319.866,64.4935 321.5,64C 320.519,56.5871 320.186,49.0871 320.5,41.5C 321.491,48.3134 321.825,55.3134 321.5,62.5C 322.5,62.5 323.5,62.5 324.5,62.5C 324.5,52.8333 324.5,43.1667 324.5,33.5C 325.404,34.209 325.737,35.209 325.5,36.5C 327.179,36.2852 328.179,36.9519 328.5,38.5C 327.698,39.9516 327.198,41.6183 327,43.5C 326.5,49.8246 326.334,56.1579 326.5,62.5C 327.5,62.5 328.5,62.5 329.5,62.5C 329.5,54.8333 329.5,47.1667 329.5,39.5C 330.493,47.9839 330.826,56.6506 330.5,65.5C 322.833,65.5 315.167,65.5 307.5,65.5C 307.5,66.8333 307.5,68.1667 307.5,69.5C 306.383,61.0024 306.383,52.3357 307.5,43.5C 307.17,49.8682 307.504,56.2015 308.5,62.5C 309.498,53.8589 309.831,45.1922 309.5,36.5C 310.309,38.2922 310.809,40.2922 311,42.5C 311.179,38.9748 311.679,35.6414 312.5,32.5 Z"/></g>
<g><path style="opacity:1" fill="#061837" d="M 320.5,41.5 C 320.186,49.0871 320.519,56.5871 321.5,64C 319.866,64.4935 318.199,64.6602 316.5,64.5C 316.5,56.8333 316.5,49.1667 316.5,41.5C 316.5,39.1667 316.5,36.8333 316.5,34.5C 317.833,34.5 319.167,34.5 320.5,34.5C 320.5,36.8333 320.5,39.1667 320.5,41.5 Z"/></g>
<g><path style="opacity:1" fill="#9ba8be" d="M 389.5,46.5 C 391.974,50.9245 392.141,55.5911 390,60.5C 389.184,61.8228 388.017,62.4894 386.5,62.5C 390.296,57.8465 391.296,52.5132 389.5,46.5 Z"/></g>
<g><path style="opacity:1" fill="#8c99af" d="M 370.5,57.5 C 374.48,63.1421 379.813,64.8088 386.5,62.5C 380.927,65.602 375.76,64.9353 371,60.5C 370.517,59.552 370.351,58.552 370.5,57.5 Z"/></g>
<g><path style="opacity:1" fill="#393939" d="M 256.5,63.5 C 257.5,63.5 258.5,63.5 259.5,63.5C 259.5,64.5 259.5,65.5 259.5,66.5C 258.5,66.5 257.5,66.5 256.5,66.5C 256.5,65.5 256.5,64.5 256.5,63.5 Z"/></g>
<g><path style="opacity:1" fill="#3c3c3c" d="M 265.5,63.5 C 266.5,63.5 267.5,63.5 268.5,63.5C 268.5,64.5 268.5,65.5 268.5,66.5C 267.5,66.5 266.5,66.5 265.5,66.5C 265.5,65.5 265.5,64.5 265.5,63.5 Z"/></g>
<g><path style="opacity:1" fill="#909eb4" d="M 426.5,59.5 C 428.638,62.0869 429.471,65.0869 429,68.5C 427.097,65.8294 426.264,62.8294 426.5,59.5 Z"/></g>
<g><path style="opacity:1" fill="#f5f7f8" d="M 330.5,65.5 C 328.77,70.668 327.27,76.0014 326,81.5C 325.535,82.9308 324.701,84.0975 323.5,85C 319.789,85.8253 316.122,85.6586 312.5,84.5C 310.453,79.5536 308.786,74.5536 307.5,69.5C 307.5,68.1667 307.5,66.8333 307.5,65.5C 315.167,65.5 322.833,65.5 330.5,65.5 Z"/></g>
<g><path style="opacity:1" fill="#5b6875" d="M 248.5,78.5 C 257.78,79.4466 267.114,79.7799 276.5,79.5C 272.012,80.1659 267.346,80.4992 262.5,80.5C 257.449,80.4933 252.783,79.8266 248.5,78.5 Z"/></g>
<g><path style="opacity:1" fill="#f9cb08" d="M 369.5,80.5 C 374.527,80.5029 379.527,80.8363 384.5,81.5C 384.5,82.8333 384.5,84.1667 384.5,85.5C 394.733,88.5374 402.566,94.8707 408,104.5C 408.44,106.866 408.94,109.199 409.5,111.5C 409.68,115.215 409.346,118.882 408.5,122.5C 409.225,123.867 409.892,125.2 410.5,126.5C 407.946,127.388 405.279,127.721 402.5,127.5C 382.848,128.38 363.182,128.713 343.5,128.5C 339.829,128.243 336.495,127.243 333.5,125.5C 333.75,124.078 334.583,123.078 336,122.5C 336.498,119.518 336.665,116.518 336.5,113.5C 337.228,110.921 337.728,108.254 338,105.5C 339.777,102.941 341.277,100.274 342.5,97.5C 344.812,95.8545 346.812,93.8545 348.5,91.5C 351.084,89.5779 353.751,87.7445 356.5,86C 358.134,85.5065 359.801,85.3398 361.5,85.5C 361.5,84.1667 361.5,82.8333 361.5,81.5C 364.167,81.1667 366.833,80.8333 369.5,80.5 Z"/></g>
<g><path style="opacity:1" fill="#48421b" d="M 369.5,80.5 C 373.646,79.353 377.98,79.1864 382.5,80C 383.416,80.2784 384.082,80.7784 384.5,81.5C 379.527,80.8363 374.527,80.5029 369.5,80.5 Z"/></g>
<g><path style="opacity:1" fill="#e3e7ea" d="M 520.5,53.5 C 521.222,53.9175 521.722,54.5842 522,55.5C 522.788,64.3381 520.455,72.3381 515,79.5C 514.388,85.2187 512.721,90.552 510,95.5C 509.667,98.5 509.333,101.5 509,104.5C 503.485,111.368 498.485,111.035 494,103.5C 494.391,97.9146 493.057,92.9146 490,88.5C 488.424,80.5887 485.424,73.2553 481,66.5C 479.065,50.4449 486.065,41.4449 502,39.5C 509.606,39.9692 515.606,43.3025 520,49.5C 520.49,50.7932 520.657,52.1266 520.5,53.5 Z"/></g>
<g><path style="opacity:1" fill="#0d1d37" d="M 520.5,53.5 C 520.666,57.5138 520.499,61.5138 520,65.5C 517.936,69.961 515.602,74.2943 513,78.5C 511.964,81.7527 511.297,85.086 511,88.5C 508.865,90.2785 506.365,90.9452 503.5,90.5C 503.5,89.5 503.5,88.5 503.5,87.5C 503.927,83.1756 504.261,78.8422 504.5,74.5C 505.79,73.9423 506.623,72.9423 507,71.5C 508.156,72.9928 508.99,72.8261 509.5,71C 508.713,68.9011 508.38,66.7345 508.5,64.5C 503.968,64.1818 499.634,64.5151 495.5,65.5C 495.66,67.153 496.326,68.4863 497.5,69.5C 499.159,76.3846 499.826,83.3846 499.5,90.5C 497.409,90.6816 495.409,90.3482 493.5,89.5C 491.427,85.7795 490.26,81.7795 490,77.5C 483.011,69.0382 481.677,59.7048 486,49.5C 492.665,41.6721 500.832,39.6721 510.5,43.5C 514.252,46.5857 517.586,49.919 520.5,53.5 Z"/></g>
<g><path style="opacity:1" fill="#eecc27" d="M 503.5,87.5 C 503.5,88.5 503.5,89.5 503.5,90.5C 502.5,90.5 501.5,90.5 500.5,90.5C 500.183,87.4281 500.516,84.4281 501.5,81.5C 502.169,83.6309 502.835,85.6309 503.5,87.5 Z"/></g>
<g><path style="opacity:1" fill="#8c853e" d="M 497.5,69.5 C 498.117,69.6107 498.617,69.944 499,70.5C 500.289,81.5651 501.956,81.8984 504,71.5C 504.483,72.448 504.649,73.448 504.5,74.5C 504.261,78.8422 503.927,83.1756 503.5,87.5C 502.835,85.6309 502.169,83.6309 501.5,81.5C 500.516,84.4281 500.183,87.4281 500.5,90.5C 500.167,90.5 499.833,90.5 499.5,90.5C 499.826,83.3846 499.159,76.3846 497.5,69.5 Z"/></g>
<g><path style="opacity:1" fill="#202629" d="M 495.5,65.5 C 499.634,64.5151 503.968,64.1818 508.5,64.5C 508.38,66.7345 508.713,68.9011 509.5,71C 508.99,72.8261 508.156,72.9928 507,71.5C 506.623,72.9423 505.79,73.9423 504.5,74.5C 504.649,73.448 504.483,72.448 504,71.5C 501.956,81.8984 500.289,81.5651 499,70.5C 498.617,69.944 498.117,69.6107 497.5,69.5C 498.23,67.955 499.563,67.1216 501.5,67C 499.655,65.872 497.655,65.372 495.5,65.5 Z"/></g>
<g><path style="opacity:1" fill="#717544" d="M 495.5,65.5 C 497.655,65.372 499.655,65.872 501.5,67C 499.563,67.1216 498.23,67.955 497.5,69.5C 496.326,68.4863 495.66,67.153 495.5,65.5 Z"/></g>
<g><path style="opacity:1" fill="#25291d" d="M 348.5,91.5 C 346.812,93.8545 344.812,95.8545 342.5,97.5C 342.751,93.6173 344.751,91.6173 348.5,91.5 Z"/></g>
<g><path style="opacity:1" fill="#dcbf2a" d="M 322.5,102.5 C 321.89,103.391 321.557,104.391 321.5,105.5C 319.755,107.033 318.755,109.033 318.5,111.5C 317.058,112.82 316.392,114.486 316.5,116.5C 318.527,116.338 320.527,116.505 322.5,117C 320.01,121.483 317.676,125.983 315.5,130.5C 315.833,127.167 316.167,123.833 316.5,120.5C 315.022,120.762 313.689,120.429 312.5,119.5C 313.747,117.677 314.414,115.677 314.5,113.5C 314.414,109.681 315.081,106.015 316.5,102.5C 318.611,101.258 320.611,101.258 322.5,102.5 Z"/></g>
<g><path style="opacity:1" fill="#635c24" d="M 322.5,102.5 C 320.611,101.258 318.611,101.258 316.5,102.5C 317.152,101.275 318.319,100.608 320,100.5C 321.167,100.833 322.333,101.167 323.5,101.5C 323.376,102.107 323.043,102.44 322.5,102.5 Z"/></g>
<g><path style="opacity:1" fill="#dcc736" d="M 262.5,175.5 C 260.824,174.817 260.157,173.483 260.5,171.5C 261.309,169.708 261.809,167.708 262,165.5C 262.807,147.475 262.64,129.475 261.5,111.5C 261.182,110.353 260.516,109.519 259.5,109C 250.199,107.651 240.866,107.317 231.5,108C 230.584,108.278 229.918,108.778 229.5,109.5C 229.217,110.289 228.717,110.956 228,111.5C 227.333,131.833 227.333,152.167 228,172.5C 228.383,173.056 228.883,173.389 229.5,173.5C 235.077,173.856 240.41,174.856 245.5,176.5C 240.167,176.5 234.833,176.5 229.5,176.5C 226.833,175.833 225.167,174.167 224.5,171.5C 224.5,150.833 224.5,130.167 224.5,109.5C 224.944,107.887 225.944,106.72 227.5,106C 238.5,105.333 249.5,105.333 260.5,106C 262,106.833 263.167,108 264,109.5C 264.667,130.5 264.667,151.5 264,172.5C 262.961,173.244 262.461,174.244 262.5,175.5 Z"/></g>
<g><path style="opacity:1" fill="#7e131e" d="M 281.5,137.5 C 280.291,141.618 279.624,145.951 279.5,150.5C 279.167,150.5 278.833,150.5 278.5,150.5C 276.636,136.605 276.136,122.605 277,108.5C 278.333,107.167 279.667,107.167 281,108.5C 281.5,118.161 281.666,127.828 281.5,137.5 Z"/></g>
<g><path style="opacity:1" fill="#02050f" d="M 290.5,108.5 C 291.79,109.058 292.623,110.058 293,111.5C 293.779,125.573 293.113,139.573 291,153.5C 289.208,138.516 289.041,123.516 290.5,108.5 Z"/></g>
<g><path style="opacity:1" fill="#403b17" d="M 321.5,105.5 C 321.975,108.313 320.975,110.313 318.5,111.5C 318.755,109.033 319.755,107.033 321.5,105.5 Z"/></g>
<g><path style="opacity:1" fill="#4d4c49" d="M 229.5,109.5 C 239.553,109.192 249.553,109.525 259.5,110.5C 260.5,128.821 260.833,147.155 260.5,165.5C 260.167,165.5 259.833,165.5 259.5,165.5C 258.116,164.199 256.616,164.199 255,165.5C 254.238,169.587 254.404,173.587 255.5,177.5C 254.833,177.5 254.167,177.5 253.5,177.5C 252.5,177.5 251.5,177.5 250.5,177.5C 251.413,174.945 252.08,172.279 252.5,169.5C 252.835,164.491 250.502,162.491 245.5,163.5C 245.253,166.939 245.586,170.272 246.5,173.5C 240.833,173.5 235.167,173.5 229.5,173.5C 228.883,173.389 228.383,173.056 228,172.5C 227.333,152.167 227.333,131.833 228,111.5C 228.717,110.956 229.217,110.289 229.5,109.5 Z"/></g>
<g><path style="opacity:1" fill="#6e662f" d="M 260.5,171.5 C 260.5,169.5 260.5,167.5 260.5,165.5C 260.833,147.155 260.5,128.821 259.5,110.5C 249.553,109.525 239.553,109.192 229.5,109.5C 229.918,108.778 230.584,108.278 231.5,108C 240.866,107.317 250.199,107.651 259.5,109C 260.516,109.519 261.182,110.353 261.5,111.5C 262.64,129.475 262.807,147.475 262,165.5C 261.809,167.708 261.309,169.708 260.5,171.5 Z"/></g>
<g><path style="opacity:1" fill="#b2b3b2" d="M 231.5,112.5 C 239.833,112.5 248.167,112.5 256.5,112.5C 256.5,116.833 256.5,121.167 256.5,125.5C 248.167,125.5 239.833,125.5 231.5,125.5C 231.5,121.167 231.5,116.833 231.5,112.5 Z"/></g>
<g><path style="opacity:1" fill="#7d7e7c" d="M 231.5,112.5 C 239.984,111.507 248.651,111.174 257.5,111.5C 257.5,116.5 257.5,121.5 257.5,126.5C 248.651,126.826 239.984,126.493 231.5,125.5C 239.833,125.5 248.167,125.5 256.5,125.5C 256.5,121.167 256.5,116.833 256.5,112.5C 248.167,112.5 239.833,112.5 231.5,112.5 Z"/></g>
<g><path style="opacity:1" fill="#605820" d="M 336.5,113.5 C 336.665,116.518 336.498,119.518 336,122.5C 334.583,123.078 333.75,124.078 333.5,125.5C 332.29,123.824 332.79,122.49 335,121.5C 335.183,118.635 335.683,115.969 336.5,113.5 Z"/></g>
<g><path style="opacity:1" fill="#636463" d="M 250.5,116.5 C 251.873,116.343 253.207,116.51 254.5,117C 253.359,117.741 253.359,118.575 254.5,119.5C 253.311,120.429 251.978,120.762 250.5,120.5C 250.5,119.167 250.5,117.833 250.5,116.5 Z"/></g>
<g><path style="opacity:1" fill="#393b26" d="M 314.5,113.5 C 314.414,115.677 313.747,117.677 312.5,119.5C 313.689,120.429 315.022,120.762 316.5,120.5C 316.167,123.833 315.833,127.167 315.5,130.5C 315.27,132.983 314.603,133.483 313.5,132C 314.382,128.559 314.716,125.059 314.5,121.5C 313.5,121.5 312.5,121.5 311.5,121.5C 311.018,118.169 312.018,115.503 314.5,113.5 Z"/></g>
<g><path style="opacity:1" fill="#ae9c27" d="M 409.5,111.5 C 410.104,115.693 411.104,119.86 412.5,124C 412.316,125.376 411.649,126.209 410.5,126.5C 409.892,125.2 409.225,123.867 408.5,122.5C 409.346,118.882 409.68,115.215 409.5,111.5 Z"/></g>
<g><path style="opacity:1" fill="#dde2e6" d="M 445.5,122.5 C 454.506,122.334 463.506,122.5 472.5,123C 473.65,131.755 473.816,140.588 473,149.5C 472.5,150 472,150.5 471.5,151C 462.84,151.5 454.173,151.666 445.5,151.5C 445.5,141.833 445.5,132.167 445.5,122.5 Z"/></g>
<g><path style="opacity:1" fill="#3e3f17" d="M 224.5,109.5 C 224.5,130.167 224.5,150.833 224.5,171.5C 223.346,157.181 222.68,142.681 222.5,128C 222.504,121.462 223.17,115.295 224.5,109.5 Z"/></g>
<g><path style="opacity:1" fill="#0e1e39" d="M 452.5,125.5 C 467.297,123.127 472.797,129.127 469,143.5C 463.475,149.192 457.475,149.858 451,145.5C 445.998,138.364 446.498,131.698 452.5,125.5 Z"/></g>
<g><path style="opacity:1" fill="#e2c2a6" d="M 402.5,127.5 C 402.5,128.5 402.5,129.5 402.5,130.5C 407.764,132.703 409.597,136.703 408,142.5C 406.77,145.732 404.77,148.399 402,150.5C 400.364,157.752 397.031,164.086 392,169.5C 391.51,170.793 391.343,172.127 391.5,173.5C 389.245,176.258 387.412,175.924 386,172.5C 382.529,176.143 378.196,177.809 373,177.5C 366.887,177.814 361.554,176.147 357,172.5C 356.098,172.743 355.265,173.077 354.5,173.5C 354.66,171.801 354.494,170.134 354,168.5C 348.621,163.267 345.121,156.934 343.5,149.5C 338.613,145.676 336.78,140.676 338,134.5C 340.04,132.63 341.873,130.63 343.5,128.5C 363.182,128.713 382.848,128.38 402.5,127.5 Z"/></g>
<g><path style="opacity:1" fill="#e8c41d" d="M 516.5,139.5 C 514.5,140.976 512.833,142.809 511.5,145C 515.44,146.015 519.44,146.515 523.5,146.5C 520.167,151.167 516.167,155.167 511.5,158.5C 510.662,158.158 510.328,157.492 510.5,156.5C 511.167,154.833 511.833,153.167 512.5,151.5C 509.843,150.132 506.51,149.132 502.5,148.5C 505.384,141.736 509.05,135.402 513.5,129.5C 516.833,128.167 520.167,128.167 523.5,129.5C 520.739,132.584 518.406,135.917 516.5,139.5 Z"/></g>
<g><path style="opacity:1" fill="#acb6c6" d="M 452.5,132.5 C 454.359,132.461 455.692,133.294 456.5,135C 454.055,135.91 452.722,135.076 452.5,132.5 Z"/></g>
<g><path style="opacity:1" fill="#b3bdc9" d="M 462.5,132.5 C 466.3,132.819 466.466,133.819 463,135.5C 462.517,134.552 462.351,133.552 462.5,132.5 Z"/></g>
<g><path style="opacity:1" fill="#1d1d1c" d="M 237.5,137.5 C 238.404,138.209 238.737,139.209 238.5,140.5C 239.5,140.5 240.5,140.5 241.5,140.5C 241.829,146.206 241.495,151.872 240.5,157.5C 234.273,153.414 232.273,147.747 234.5,140.5C 235.77,139.712 236.77,138.712 237.5,137.5 Z"/></g>
<g><path style="opacity:1" fill="#1e1e1e" d="M 242.5,136.5 C 252.234,135.747 256.401,140.414 255,150.5C 253.305,153.695 250.805,156.028 247.5,157.5C 246.337,152.198 246.171,146.864 247,141.5C 247.903,140.299 249.069,139.465 250.5,139C 247.978,137.659 245.311,136.826 242.5,136.5 Z"/></g>
<g><path style="opacity:1" fill="#8992a6" d="M 457.5,139.5 C 458.5,139.5 459.5,139.5 460.5,139.5C 460.5,141.167 460.5,142.833 460.5,144.5C 459.5,144.5 458.5,144.5 457.5,144.5C 457.5,142.833 457.5,141.167 457.5,139.5 Z"/></g>
<g><path style="opacity:1" fill="#48451b" d="M 516.5,139.5 C 515.962,141.117 515.629,142.784 515.5,144.5C 518.187,144.336 520.854,144.503 523.5,145C 524.738,145.69 524.738,146.19 523.5,146.5C 519.44,146.515 515.44,146.015 511.5,145C 512.833,142.809 514.5,140.976 516.5,139.5 Z"/></g>
<g><path style="opacity:1" fill="#2d132a" d="M 281.5,137.5 C 281.552,151.689 280.886,165.689 279.5,179.5C 279.5,169.833 279.5,160.167 279.5,150.5C 279.624,145.951 280.291,141.618 281.5,137.5 Z"/></g>
<g><path style="opacity:1" fill="#525127" d="M 502.5,148.5 C 506.51,149.132 509.843,150.132 512.5,151.5C 508.833,151.5 505.167,151.5 501.5,151.5C 501.263,150.209 501.596,149.209 502.5,148.5 Z"/></g>
<g><path style="opacity:1" fill="#6d1a2a" d="M 278.5,150.5 C 278.833,150.5 279.167,150.5 279.5,150.5C 279.5,160.167 279.5,169.833 279.5,179.5C 279.821,182.577 278.821,184.91 276.5,186.5C 277.901,174.556 278.567,162.556 278.5,150.5 Z"/></g>
<g><path style="opacity:1" fill="#979139" d="M 510.5,156.5 C 510.328,157.492 510.662,158.158 511.5,158.5C 510.572,160.599 509.072,162.266 507,163.5C 506.587,160.404 507.754,158.071 510.5,156.5 Z"/></g>
<g><path style="opacity:1" fill="#b11817" d="M 230.5,162.5 C 232.5,162.5 234.5,162.5 236.5,162.5C 237.5,167.5 235.5,169.5 230.5,168.5C 230.5,166.5 230.5,164.5 230.5,162.5 Z"/></g>
<g><path style="opacity:1" fill="#5b172a" d="M 248.5,179.5 C 249.167,179.5 249.833,179.5 250.5,179.5C 250.334,183.846 250.501,188.179 251,192.5C 252.167,193.667 253.333,194.833 254.5,196C 265.265,196.952 275.932,196.619 286.5,195C 287.667,193.833 288.833,192.667 290,191.5C 291.333,142.167 292,142.167 292,191.5C 290.084,195.085 287.251,197.585 283.5,199C 274.167,199.667 264.833,199.667 255.5,199C 253.024,197.691 251.024,195.858 249.5,193.5C 248.507,188.88 248.173,184.214 248.5,179.5 Z"/></g>
<g><path style="opacity:1" fill="#111013" d="M 253.5,177.5 C 252.5,178.167 251.5,178.833 250.5,179.5C 249.833,179.5 249.167,179.5 248.5,179.5C 244.5,178.833 240.5,178.167 236.5,177.5C 240.167,177.5 243.833,177.5 247.5,177.5C 247.737,176.209 247.404,175.209 246.5,174.5C 246.5,174.167 246.5,173.833 246.5,173.5C 245.586,170.272 245.253,166.939 245.5,163.5C 250.502,162.491 252.835,164.491 252.5,169.5C 252.08,172.279 251.413,174.945 250.5,177.5C 251.5,177.5 252.5,177.5 253.5,177.5 Z"/></g>
<g><path style="opacity:1" fill="#bd160e" d="M 259.5,165.5 C 259.666,169.514 259.499,173.514 259,177.5C 257.989,178.337 256.822,178.67 255.5,178.5C 255.5,178.167 255.5,177.833 255.5,177.5C 254.404,173.587 254.238,169.587 255,165.5C 256.616,164.199 258.116,164.199 259.5,165.5 Z"/></g>
<g><path style="opacity:1" fill="#d7b496" d="M 391.5,173.5 C 391.5,177.167 391.5,180.833 391.5,184.5C 379.379,190.646 367.046,190.979 354.5,185.5C 354.5,181.5 354.5,177.5 354.5,173.5C 355.265,173.077 356.098,172.743 357,172.5C 361.554,176.147 366.887,177.814 373,177.5C 378.196,177.809 382.529,176.143 386,172.5C 387.412,175.924 389.245,176.258 391.5,173.5 Z"/></g>
<g><path style="opacity:1" fill="#898126" d="M 229.5,173.5 C 235.167,173.5 240.833,173.5 246.5,173.5C 246.5,173.833 246.5,174.167 246.5,174.5C 246.672,175.492 246.338,176.158 245.5,176.5C 240.41,174.856 235.077,173.856 229.5,173.5 Z"/></g>
<g><path style="opacity:1" fill="#f7f8f9" d="M 466.5,174.5 C 476.083,174.182 485.583,174.515 495,175.5C 495.806,184.881 495.64,194.215 494.5,203.5C 484.94,204.817 475.44,204.817 466,203.5C 465.194,193.756 465.361,184.089 466.5,174.5 Z"/></g>
<g><path style="opacity:1" fill="#474823" d="M 246.5,174.5 C 247.404,175.209 247.737,176.209 247.5,177.5C 243.833,177.5 240.167,177.5 236.5,177.5C 233.941,177.802 231.607,177.468 229.5,176.5C 234.833,176.5 240.167,176.5 245.5,176.5C 246.338,176.158 246.672,175.492 246.5,174.5 Z"/></g>
<g><path style="opacity:1" fill="#661f29" d="M 259.5,165.5 C 259.833,165.5 260.167,165.5 260.5,165.5C 260.5,167.5 260.5,169.5 260.5,171.5C 260.157,173.483 260.824,174.817 262.5,175.5C 257.2,179.538 257.2,183.705 262.5,188C 267.391,189.78 272.058,189.28 276.5,186.5C 276.063,188.074 275.063,189.241 273.5,190C 263.429,192.467 257.429,188.634 255.5,178.5C 256.822,178.67 257.989,178.337 259,177.5C 259.499,173.514 259.666,169.514 259.5,165.5 Z"/></g>
<g><path style="opacity:1" fill="#d4d5d5" d="M 475.5,180.5 C 478.833,180.5 482.167,180.5 485.5,180.5C 485.5,186.5 485.5,192.5 485.5,198.5C 482.167,198.5 478.833,198.5 475.5,198.5C 475.5,192.5 475.5,186.5 475.5,180.5 Z"/></g>
<g><path style="opacity:1" fill="#aaabaa" d="M 476.5,181.5 C 479.167,181.5 481.833,181.5 484.5,181.5C 484.666,186.844 484.499,192.177 484,197.5C 483.503,194.854 483.336,192.187 483.5,189.5C 481.167,189.5 478.833,189.5 476.5,189.5C 476.5,186.833 476.5,184.167 476.5,181.5 Z"/></g>
<g><path style="opacity:1" fill="#18acbc" d="M 391.5,184.5 C 394.555,188.22 398.222,191.22 402.5,193.5C 402.159,206.042 402.826,218.375 404.5,230.5C 404.5,231.167 404.5,231.833 404.5,232.5C 402.5,232.5 400.5,232.5 398.5,232.5C 396.538,230.983 394.205,230.316 391.5,230.5C 375.81,231.961 360.143,231.794 344.5,230C 345.059,229.275 345.392,228.442 345.5,227.5C 344.884,218.018 344.217,208.685 343.5,199.5C 343.5,197.5 343.5,195.5 343.5,193.5C 347.428,191.245 351.095,188.578 354.5,185.5C 367.046,190.979 379.379,190.646 391.5,184.5 Z"/></g>
<g><path style="opacity:1" fill="#16aabc" d="M 325.5,198.5 C 326.833,198.5 328.167,198.5 329.5,198.5C 330.81,220.166 330.81,241.833 329.5,263.5C 318.833,263.5 308.167,263.5 297.5,263.5C 297.5,260.833 297.5,258.167 297.5,255.5C 299.105,245.713 299.772,235.713 299.5,225.5C 299.679,217.13 303.012,210.296 309.5,205C 314.741,202.544 320.075,200.377 325.5,198.5 Z"/></g>
<g><path style="opacity:1" fill="#16acbd" d="M 419.5,198.5 C 428.853,200.115 436.687,204.449 443,211.5C 444.992,215.96 446.159,220.627 446.5,225.5C 446.088,234.4 446.754,243.067 448.5,251.5C 448.5,253.833 448.5,256.167 448.5,258.5C 448.5,260.167 448.5,261.833 448.5,263.5C 438.167,263.5 427.833,263.5 417.5,263.5C 417.814,252.747 417.147,242.08 415.5,231.5C 416.61,220.202 417.944,209.202 419.5,198.5 Z"/></g>
<g><path style="opacity:1" fill="#09587c" d="M 402.5,193.5 C 408.163,195.517 413.83,197.184 419.5,198.5C 417.944,209.202 416.61,220.202 415.5,231.5C 417.147,242.08 417.814,252.747 417.5,263.5C 427.833,263.5 438.167,263.5 448.5,263.5C 448.5,261.833 448.5,260.167 448.5,258.5C 449.461,260.265 449.795,262.265 449.5,264.5C 398.664,264.832 347.997,264.499 297.5,263.5C 308.167,263.5 318.833,263.5 329.5,263.5C 338.5,263.5 347.5,263.5 356.5,263.5C 367.5,263.5 378.5,263.5 389.5,263.5C 397.507,263.666 405.507,263.5 413.5,263C 413.778,257.317 413.445,251.484 412.5,245.5C 416.378,244.115 416.378,242.949 412.5,242C 413.357,241.311 414.023,240.478 414.5,239.5C 410.093,238.875 405.759,238.042 401.5,237C 402.973,236.29 403.64,235.124 403.5,233.5C 383.167,233.5 362.833,233.5 342.5,233.5C 342.768,235.099 342.434,236.432 341.5,237.5C 341.5,235.833 341.5,234.167 341.5,232.5C 360.5,232.5 379.5,232.5 398.5,232.5C 400.5,232.5 402.5,232.5 404.5,232.5C 404.33,233.822 404.663,234.989 405.5,236C 408.393,237.149 411.393,237.649 414.5,237.5C 414.5,233.167 414.5,228.833 414.5,224.5C 411.167,224.5 407.833,224.5 404.5,224.5C 404.5,226.5 404.5,228.5 404.5,230.5C 402.826,218.375 402.159,206.042 402.5,193.5 Z"/></g>
<g><path style="opacity:1" fill="#050e16" d="M 404.5,232.5 C 404.5,231.833 404.5,231.167 404.5,230.5C 404.5,228.5 404.5,226.5 404.5,224.5C 407.833,224.5 411.167,224.5 414.5,224.5C 414.5,228.833 414.5,233.167 414.5,237.5C 411.393,237.649 408.393,237.149 405.5,236C 404.663,234.989 404.33,233.822 404.5,232.5 Z"/></g>
<g><path style="opacity:1" fill="#e6e8eb" d="M 476.5,260.5 C 476.435,260.062 476.601,259.728 477,259.5C 477.792,261.587 478.959,263.421 480.5,265C 490.613,267.261 494.279,263.427 491.5,253.5C 488.253,250.607 484.586,249.94 480.5,251.5C 479.032,254.154 477.365,256.487 475.5,258.5C 474.523,255.713 474.19,252.713 474.5,249.5C 474.215,247.712 474.548,246.045 475.5,244.5C 480.336,248.444 485.17,248.444 490,244.5C 492.387,235.903 489.221,231.736 480.5,232C 479.069,232.465 477.903,233.299 477,234.5C 475.522,237.158 474.355,239.825 473.5,242.5C 469.937,233.533 473.103,228.866 483,228.5C 486.698,228.1 489.531,229.433 491.5,232.5C 494.276,250.899 496.61,269.399 498.5,288C 498.392,292.607 496.058,295.107 491.5,295.5C 490.098,305.787 493.431,313.954 501.5,320C 497.454,320.324 494.621,318.491 493,314.5C 490.567,309.102 489.234,303.435 489,297.5C 486.384,296.347 483.718,295.347 481,294.5C 478.01,283.377 476.51,272.044 476.5,260.5 Z"/></g>
<g><path style="opacity:1" fill="#d9dfe4" d="M 260.5,219.5 C 263.205,219.38 263.872,220.38 262.5,222.5C 255.181,229.889 246.181,233.389 235.5,233C 228.428,238.56 226.928,245.393 231,253.5C 235.881,257.77 241.381,258.603 247.5,256C 252.948,252.552 257.782,248.385 262,243.5C 262.885,238.189 265.052,233.522 268.5,229.5C 272.353,232.519 275.687,236.019 278.5,240C 274.52,243.439 269.853,245.106 264.5,245C 258.57,251.611 251.57,256.611 243.5,260C 232.659,261.336 226.659,256.503 225.5,245.5C 228.165,232.644 236.165,226.811 249.5,228C 252.167,226.667 254.833,225.333 257.5,224C 259.141,222.871 260.141,221.371 260.5,219.5 Z"/></g>
<g><path style="opacity:1" fill="#1790a8" d="M 343.5,199.5 C 344.217,208.685 344.884,218.018 345.5,227.5C 345.392,228.442 345.059,229.275 344.5,230C 360.143,231.794 375.81,231.961 391.5,230.5C 394.205,230.316 396.538,230.983 398.5,232.5C 379.5,232.5 360.5,232.5 341.5,232.5C 341.5,231.833 341.5,231.167 341.5,230.5C 342.78,220.357 343.447,210.024 343.5,199.5 Z"/></g>
<g><path style="opacity:1" fill="#bbbcbd" d="M 474.5,249.5 C 473.532,247.393 473.198,245.059 473.5,242.5C 474.355,239.825 475.522,237.158 477,234.5C 477.903,233.299 479.069,232.465 480.5,232C 489.221,231.736 492.387,235.903 490,244.5C 485.17,248.444 480.336,248.444 475.5,244.5C 474.548,246.045 474.215,247.712 474.5,249.5 Z"/></g>
<g><path style="opacity:1" fill="#015984" d="M 343.5,193.5 C 343.5,195.5 343.5,197.5 343.5,199.5C 343.447,210.024 342.78,220.357 341.5,230.5C 341.784,228.585 341.451,226.919 340.5,225.5C 337.713,224.523 334.713,224.19 331.5,224.5C 331.5,228.833 331.5,233.167 331.5,237.5C 334.833,237.5 338.167,237.5 341.5,237.5C 342.434,236.432 342.768,235.099 342.5,233.5C 362.833,233.5 383.167,233.5 403.5,233.5C 403.64,235.124 402.973,236.29 401.5,237C 405.759,238.042 410.093,238.875 414.5,239.5C 414.023,240.478 413.357,241.311 412.5,242C 416.378,242.949 416.378,244.115 412.5,245.5C 413.445,251.484 413.778,257.317 413.5,263C 405.507,263.5 397.507,263.666 389.5,263.5C 390.09,259.103 390.09,254.77 389.5,250.5C 378.833,249.167 368.167,249.167 357.5,250.5C 356.561,254.765 356.228,259.098 356.5,263.5C 347.5,263.5 338.5,263.5 329.5,263.5C 330.81,241.833 330.81,220.166 329.5,198.5C 328.167,198.5 326.833,198.5 325.5,198.5C 331.531,197.272 337.531,195.605 343.5,193.5 Z"/></g>
<g><path style="opacity:1" fill="#042a44" d="M 340.5,225.5 C 341.451,226.919 341.784,228.585 341.5,230.5C 341.5,231.167 341.5,231.833 341.5,232.5C 341.5,234.167 341.5,235.833 341.5,237.5C 338.167,237.5 334.833,237.5 331.5,237.5C 331.5,233.167 331.5,228.833 331.5,224.5C 334.713,224.19 337.713,224.523 340.5,225.5 Z"/></g>
<g><path style="opacity:1" fill="#010305" d="M 340.5,225.5 C 340.5,229.167 340.5,232.833 340.5,236.5C 337.833,236.5 335.167,236.5 332.5,236.5C 332.5,232.833 332.5,229.167 332.5,225.5C 335.167,225.5 337.833,225.5 340.5,225.5 Z"/></g>
<g><path style="opacity:1" fill="#196d84" d="M 446.5,225.5 C 447.725,233.975 448.392,242.642 448.5,251.5C 446.754,243.067 446.088,234.4 446.5,225.5 Z"/></g>
<g><path style="opacity:1" fill="#16657d" d="M 299.5,225.5 C 299.772,235.713 299.105,245.713 297.5,255.5C 297.667,245.315 298.333,235.315 299.5,225.5 Z"/></g>
<g><path style="opacity:1" fill="#1b6589" d="M 389.5,263.5 C 378.5,263.5 367.5,263.5 356.5,263.5C 356.228,259.098 356.561,254.765 357.5,250.5C 368.167,249.167 378.833,249.167 389.5,250.5C 390.09,254.77 390.09,259.103 389.5,263.5 Z"/></g>
<g><path style="opacity:1" fill="#babbbb" d="M 476.5,260.5 C 475.662,260.158 475.328,259.492 475.5,258.5C 477.365,256.487 479.032,254.154 480.5,251.5C 484.586,249.94 488.253,250.607 491.5,253.5C 494.279,263.427 490.613,267.261 480.5,265C 478.959,263.421 477.792,261.587 477,259.5C 476.601,259.728 476.435,260.062 476.5,260.5 Z"/></g>
<g><path style="opacity:1" fill="#edeff1" d="M 516.5,263.5 C 515.167,263.5 513.833,263.5 512.5,263.5C 510.405,262.588 508.405,261.421 506.5,260C 503.967,257.916 503.967,255.916 506.5,254C 510.242,253.097 513.908,251.93 517.5,250.5C 518.999,255.108 518.666,259.442 516.5,263.5 Z"/></g>
<g><path style="opacity:1" fill="#a29a44" d="M 282.5,271.5 C 282.672,270.508 282.338,269.842 281.5,269.5C 281.481,266.341 282.648,263.674 285,261.5C 284.272,264.874 283.439,268.208 282.5,271.5 Z"/></g>
<g><path style="opacity:1" fill="#eac61b" d="M 281.5,269.5 C 282.338,269.842 282.672,270.508 282.5,271.5C 282.5,271.833 282.5,272.167 282.5,272.5C 281.549,273.919 281.216,275.585 281.5,277.5C 284.5,277.5 287.5,277.5 290.5,277.5C 286.803,284.705 282.47,291.538 277.5,298C 275.593,298.132 274.093,297.298 273,295.5C 271.374,296.289 269.874,297.289 268.5,298.5C 268.167,298 267.833,297.5 267.5,297C 268.885,295.403 269.551,293.57 269.5,291.5C 271.92,290.355 273.92,291.022 275.5,293.5C 277.784,291.317 279.118,288.65 279.5,285.5C 280.478,285.189 281.145,284.522 281.5,283.5C 279.025,283.036 277.025,282.036 275.5,280.5C 276.688,276.463 278.688,272.796 281.5,269.5 Z"/></g>
<g><path style="opacity:1" fill="#bdbdbd" d="M 483.5,269.5 C 493.954,269.374 496.954,274.041 492.5,283.5C 488.134,285.262 484.301,284.595 481,281.5C 480.833,280 480.667,278.5 480.5,277C 480.693,274.043 481.693,271.543 483.5,269.5 Z"/></g>
<g><path style="opacity:1" fill="#847929" d="M 282.5,272.5 C 282.5,273.833 282.5,275.167 282.5,276.5C 286.654,276.09 289.321,276.423 290.5,277.5C 287.5,277.5 284.5,277.5 281.5,277.5C 281.216,275.585 281.549,273.919 282.5,272.5 Z"/></g>
<g><path style="opacity:1" fill="#1b2228" d="M 274.5,281.5 C 276.007,282.975 277.673,284.309 279.5,285.5C 279.118,288.65 277.784,291.317 275.5,293.5C 273.92,291.022 271.92,290.355 269.5,291.5C 270.131,287.571 271.798,284.237 274.5,281.5 Z"/></g>
<g><path style="opacity:1" fill="#11223e" d="M 453.5,284.5 C 456.365,286.542 456.032,287.708 452.5,288C 450.32,288.419 448.154,288.252 446,287.5C 444.105,287.615 442.438,288.282 441,289.5C 439.506,288.253 438.006,288.253 436.5,289.5C 437.025,290.192 437.692,290.692 438.5,291C 434.132,292.084 429.799,292.25 425.5,291.5C 423.884,292.115 422.551,293.115 421.5,294.5C 420.604,293.494 419.938,293.494 419.5,294.5C 422.857,295.19 424.857,297.19 425.5,300.5C 423.81,303.781 422.81,307.281 422.5,311C 422.305,313.793 422.971,316.293 424.5,318.5C 423.975,319.192 423.308,319.692 422.5,320C 416.843,320.499 411.176,320.666 405.5,320.5C 405.5,314.5 405.5,308.5 405.5,302.5C 404.325,302.719 403.325,302.386 402.5,301.5C 405.56,299.821 407.894,297.487 409.5,294.5C 409.291,293.914 408.957,293.414 408.5,293C 410.527,292.502 412.527,292.669 414.5,293.5C 415.167,293.167 415.833,292.833 416.5,292.5C 415.167,291.5 415.167,290.5 416.5,289.5C 415.167,288.833 413.833,288.167 412.5,287.5C 405.524,286.336 398.524,286.169 391.5,287C 391.307,288.645 391.14,290.479 391,292.5C 389.068,288.899 389.068,285.232 391,281.5C 400.045,282.198 409.212,283.198 418.5,284.5C 421.498,282.332 424.831,281.332 428.5,281.5C 428.281,282.675 428.614,283.675 429.5,284.5C 433.972,283.051 438.139,283.717 442,286.5C 443.77,284.8 446.27,283.133 449.5,281.5C 451.261,282.035 452.594,283.035 453.5,284.5 Z"/></g>
<g><path style="opacity:1" fill="#87802e" d="M 275.5,280.5 C 277.025,282.036 279.025,283.036 281.5,283.5C 281.145,284.522 280.478,285.189 279.5,285.5C 277.673,284.309 276.007,282.975 274.5,281.5C 274.5,280.833 274.833,280.5 275.5,280.5 Z"/></g>
<g><path style="opacity:1" fill="#8d99ac" d="M 453.5,284.5 C 453.53,285.497 453.03,286.164 452,286.5C 447.686,284.906 448.186,284.239 453.5,284.5 Z"/></g>
<g><path style="opacity:1" fill="#1b283e" d="M 377.5,320.5 C 377.5,311.167 377.5,301.833 377.5,292.5C 366.167,292.5 354.833,292.5 343.5,292.5C 342.768,301.815 342.434,311.148 342.5,320.5C 341.5,320.5 340.5,320.5 339.5,320.5C 338.885,310.657 339.718,300.991 342,291.5C 343.419,290.54 344.919,289.707 346.5,289C 357.505,286.726 368.172,287.559 378.5,291.5C 379.489,295.107 379.823,298.774 379.5,302.5C 382.881,302.46 386.214,302.793 389.5,303.5C 389.335,300.15 389.502,296.817 390,293.5C 390.333,293.833 390.667,294.167 391,294.5C 391.499,298.486 391.666,302.486 391.5,306.5C 387.588,308.112 383.921,307.779 380.5,305.5C 380.131,310.9 379.131,315.9 377.5,320.5 Z"/></g>
<g><path style="opacity:1" fill="#cad3db" d="M 512.5,263.5 C 513.833,263.5 515.167,263.5 516.5,263.5C 521.131,272.081 526.298,280.415 532,288.5C 534.435,296.321 535.102,304.321 534,312.5C 532.593,314.861 531.093,317.194 529.5,319.5C 528.232,320.428 526.899,320.595 525.5,320C 532.092,313.114 534.259,304.948 532,295.5C 531.027,293.608 530.36,291.608 530,289.5C 523.7,280.965 517.866,272.298 512.5,263.5 Z"/></g>
<g><path style="opacity:1" fill="#b83b3c" d="M 483.5,288.5 C 487.167,288.5 490.833,288.5 494.5,288.5C 494.5,289.833 494.5,291.167 494.5,292.5C 490.785,292.423 487.119,292.756 483.5,293.5C 483.5,291.833 483.5,290.167 483.5,288.5 Z"/></g>
<g><path style="opacity:1" fill="#f3f4f4" d="M 377.5,320.5 C 376.5,320.5 375.5,320.5 374.5,320.5C 379.488,306.319 374.655,301.319 360,305.5C 354.784,305.506 349.951,306.173 345.5,307.5C 344.35,311.808 344.35,316.141 345.5,320.5C 344.5,320.5 343.5,320.5 342.5,320.5C 342.434,311.148 342.768,301.815 343.5,292.5C 354.833,292.5 366.167,292.5 377.5,292.5C 377.5,301.833 377.5,311.167 377.5,320.5 Z"/></g>
<g><path style="opacity:1" fill="#b8b8b8" d="M 374.5,320.5 C 373.167,320.5 371.833,320.5 370.5,320.5C 369.081,319.549 367.415,319.216 365.5,319.5C 365.5,318.5 365.5,317.5 365.5,316.5C 364.448,316.649 363.448,316.483 362.5,316C 363.634,314.984 363.301,314.317 361.5,314C 364.351,312.711 367.351,312.211 370.5,312.5C 370.5,310.833 370.5,309.167 370.5,307.5C 364.132,307.17 357.798,307.504 351.5,308.5C 349.827,310.523 349.16,312.856 349.5,315.5C 353.893,315.543 354.226,315.043 350.5,314C 353.669,313.003 356.336,313.67 358.5,316C 357.207,316.49 355.873,316.657 354.5,316.5C 353.833,320.5 353.167,320.5 352.5,316.5C 351.5,316.5 350.5,316.5 349.5,316.5C 349.5,317.5 349.5,318.5 349.5,319.5C 348.5,319.5 347.5,319.5 346.5,319.5C 346.817,315.298 346.483,311.298 345.5,307.5C 349.951,306.173 354.784,305.506 360,305.5C 374.655,301.319 379.488,306.319 374.5,320.5 Z"/></g>
<g><path style="opacity:1" fill="#8b8b8b" d="M 345.5,307.5 C 346.483,311.298 346.817,315.298 346.5,319.5C 347.5,319.5 348.5,319.5 349.5,319.5C 349.5,318.5 349.5,317.5 349.5,316.5C 350.5,316.5 351.5,316.5 352.5,316.5C 353.167,320.5 353.833,320.5 354.5,316.5C 355.873,316.657 357.207,316.49 358.5,316C 356.336,313.67 353.669,313.003 350.5,314C 354.226,315.043 353.893,315.543 349.5,315.5C 349.16,312.856 349.827,310.523 351.5,308.5C 357.798,307.504 364.132,307.17 370.5,307.5C 370.5,309.167 370.5,310.833 370.5,312.5C 367.351,312.211 364.351,312.711 361.5,314C 363.301,314.317 363.634,314.984 362.5,316C 363.448,316.483 364.448,316.649 365.5,316.5C 365.5,317.5 365.5,318.5 365.5,319.5C 367.415,319.216 369.081,319.549 370.5,320.5C 362.167,320.5 353.833,320.5 345.5,320.5C 344.35,316.141 344.35,311.808 345.5,307.5 Z"/></g>
</svg>
